<?xml version="1.0" encoding="utf-8"?>
<!-- Generator: Adobe Illustrator 19.0.0, SVG Export Plug-In . SVG Version: 6.00 Build 0)  -->
<svg version="1.1" id="Capa_1" xmlns="http://www.w3.org/2000/svg" xmlns:xlink="http://www.w3.org/1999/xlink" x="0px" y="0px"
	 viewBox="0 0 169.8 59" style="enable-background:new 0 0 169.8 59;" xml:space="preserve">
<style type="text/css">
	.st0{fill-rule:evenodd;clip-rule:evenodd;fill:#7A7A78;}
	.st1{fill-rule:evenodd;clip-rule:evenodd;fill:#3CD52E;}
	.st2{fill:#7A7A78;}
	.st3{fill:#3CD52E;}
</style>
<g id="XMLID_312_">
	<g id="XMLID_313_">
		<g id="XMLID_314_">
			<path id="XMLID_14858_" class="st0" d="M5.4,50.4c0.5,0,1.3,0.1,1.2,1.2c-0.1,0.8-0.6,1-1.2,1h-2v-2.2H5.4z M2.5,56h0.8v-2.7h2.1
				c1.3,0,1,1.2,1,1.9c0,0.2,0.1,0.5,0.2,0.8h1v-0.2c-0.3-0.2-0.3-0.5-0.3-1.3c0-1-0.1-1.2-0.7-1.6c0.6-0.5,0.9-0.8,0.8-1.6
				c-0.1-1.4-1-1.6-2-1.6H2.5V56z"/>
		</g>
		<g id="XMLID_315_">
			<path id="XMLID_14854_" class="st0" d="M9.1,53.4c0-0.5,0.3-1,0.4-1.1c0.2-0.3,0.6-0.4,1-0.4c0.4,0,0.7,0.2,0.8,0.4
				c0.1,0.1,0.4,0.6,0.3,1.1H9.1z M12.4,54c0-0.8,0-1.4-0.5-2c-0.3-0.3-0.8-0.6-1.3-0.6c-0.6,0-1.2,0.1-1.7,0.7
				c-0.4,0.4-0.6,1.1-0.6,1.7c0,0.7,0.2,1.3,0.5,1.7c0.4,0.5,1,0.7,1.6,0.7c0.6,0,1.2-0.2,1.5-0.7c0.3-0.3,0.3-0.6,0.4-0.9h-0.7
				c-0.1,0.3-0.3,1-1.2,1c-0.5,0-0.8-0.3-1-0.6c-0.3-0.4-0.3-0.7-0.3-1H12.4z"/>
		</g>
		<g id="XMLID_316_">
			<path id="XMLID_14850_" class="st0" d="M15.9,55.2c-0.3,0.3-0.6,0.4-0.9,0.4c-0.3,0-0.7-0.2-0.9-0.5c-0.2-0.3-0.3-0.8-0.3-1.2
				c0-0.4,0.1-0.8,0.2-1c0.2-0.5,0.7-0.7,1-0.7c0.4,0,0.7,0.2,0.8,0.3C16.4,53,16.5,54.6,15.9,55.2z M16.3,51.5V52h0
				c-0.4-0.5-0.8-0.7-1.3-0.7c-0.8,0-1.4,0.6-1.5,0.7c-0.3,0.5-0.5,1.2-0.5,2c0,0.7,0.3,1.4,0.8,1.8c0.4,0.3,0.7,0.4,1,0.4
				c0.7,0,1.2-0.4,1.5-0.7c0,0.4,0,0.6-0.1,1c-0.1,0.3-0.1,0.5-0.5,0.7c-0.2,0.1-0.4,0.1-0.7,0.1c-0.2,0-0.4,0-0.6-0.1
				c-0.5-0.2-0.5-0.5-0.5-0.6h-0.7c0,0.4,0.1,0.9,1,1.2c0.3,0.1,0.7,0.2,1,0.1c0.3,0,0.6-0.1,0.8-0.2c1-0.3,1.1-1.4,1.1-2.5v-3.8
				H16.3z"/>
		</g>
		<g id="XMLID_317_">
			<path id="XMLID_14846_" class="st0" d="M18.9,49.7h-0.7v0.9h0.7V49.7z M18.9,51.5h-0.7V56h0.7V51.5z"/>
		</g>
		<g id="XMLID_318_">
			<path id="XMLID_14841_" class="st0" d="M23.2,53.8c0,0.7-0.3,1.7-1.3,1.7c-1,0-1.3-1-1.3-1.7c0-0.7,0.4-1.7,1.3-1.7
				C22.8,52.1,23.2,53,23.2,53.8z M23.9,53.8c0-2-1.2-2.4-2-2.4c-0.8,0-2,0.4-2,2.4c0,2,1.2,2.4,2,2.4
				C22.7,56.2,23.9,55.8,23.9,53.8z M22.1,49.6l-0.8,1.3h0.5l1.3-1.3H22.1z"/>
		</g>
		<g id="XMLID_319_">
			<path id="XMLID_14839_" class="st0" d="M24.9,51.5V56h0.7v-2.4c0-1.2,0.6-1.6,1.2-1.6c0.5,0,0.9,0.3,0.9,0.9V56h0.7v-3.5
				c-0.1-0.7-0.5-0.9-0.7-1c-0.1-0.1-0.4-0.1-0.7-0.1c-0.3,0-0.7,0-0.9,0.2c-0.2,0.1-0.4,0.3-0.5,0.5h0v-0.6H24.9z"/>
		</g>
		<g id="XMLID_320_">
			<path id="XMLID_14835_" class="st0" d="M32.9,55.1c-0.6-0.8-0.4-2.1-0.1-2.6c0.2-0.3,0.6-0.5,1-0.4c0.4,0,0.7,0.2,0.9,0.4
				c0.2,0.3,0.6,1.5,0,2.5c-0.2,0.3-0.5,0.5-0.9,0.5C33.5,55.6,33.2,55.4,32.9,55.1z M35.1,49.7V52h0c-0.1-0.1-0.2-0.3-0.4-0.4
				c-0.2-0.1-0.6-0.3-1-0.3c-0.4,0-0.9,0.1-1.3,0.6c-0.4,0.5-0.7,1.3-0.6,2.1c0.1,0.8,0.4,1.6,1.1,2c0.3,0.1,0.6,0.2,0.9,0.2
				c0.3,0,0.6-0.1,0.8-0.2c0.3-0.2,0.5-0.4,0.6-0.6V56h0.6v-6.3H35.1z"/>
		</g>
		<g id="XMLID_321_">
			<path id="XMLID_14831_" class="st0" d="M37.5,53.4c0-0.5,0.3-1,0.4-1.1c0.2-0.3,0.6-0.4,1-0.4c0.4,0,0.7,0.2,0.8,0.4
				c0.1,0.1,0.4,0.6,0.3,1.1H37.5z M40.7,54c0-0.8,0-1.4-0.5-2c-0.3-0.3-0.8-0.6-1.3-0.6s-1.2,0.1-1.7,0.7c-0.4,0.4-0.6,1.1-0.6,1.7
				c0,0.7,0.2,1.3,0.5,1.7c0.4,0.5,1,0.7,1.6,0.7c0.6,0,1.2-0.2,1.5-0.7c0.3-0.3,0.3-0.6,0.4-0.9h-0.7c-0.1,0.3-0.3,1-1.2,1
				c-0.5,0-0.8-0.3-1-0.6c-0.3-0.4-0.3-0.7-0.3-1H40.7z"/>
		</g>
		<g id="XMLID_322_">
			<polygon id="XMLID_14829_" class="st0" points="47.5,56 49.3,50.9 49.3,56 50.1,56 50.1,49.7 48.9,49.7 47.1,55.1 45.3,49.7 
				44.2,49.7 44.2,56 45,56 45,50.9 46.7,56 			"/>
		</g>
		<g id="XMLID_323_">
			<path id="XMLID_14827_" class="st0" d="M54.9,56v-4.5h-0.7v2.5c0,0.6-0.1,1.3-0.9,1.5c-0.2,0.1-0.4,0.1-0.5,0.1
				c-0.2,0-0.3-0.1-0.4-0.1C52.1,55.3,52,55,52,54.7v-3.2h-0.7v3.6c0.1,0.5,0.4,0.8,0.7,1c0.1,0.1,0.4,0.1,0.7,0.1
				c0.3,0,0.7-0.1,0.9-0.2c0.2-0.1,0.4-0.3,0.5-0.5h0V56H54.9z"/>
		</g>
		<g id="XMLID_324_">
			<path id="XMLID_14825_" class="st0" d="M56.1,56h0.7v-2.4c0-0.8,0.3-1.2,0.8-1.4c0.2-0.1,0.4-0.1,0.7-0.1v-0.8h-0.4
				c-0.3,0-0.8,0.3-1,0.8h0v-0.7h-0.7V56z"/>
		</g>
		<g id="XMLID_325_">
			<path id="XMLID_14823_" class="st0" d="M61.8,54.5c0,0.2-0.1,0.4-0.2,0.6c-0.1,0.2-0.5,0.5-0.9,0.5c-0.4,0-0.8-0.2-1.1-0.7
				c-0.1-0.3-0.2-0.8-0.2-1.2c0-0.5,0.2-0.9,0.4-1.1c0.3-0.3,0.6-0.5,0.9-0.5c0.3,0,0.5,0.1,0.6,0.1c0.3,0.1,0.4,0.4,0.5,0.8h0.7
				c-0.1-0.5-0.2-1-0.6-1.3c-0.3-0.3-0.8-0.4-1.3-0.4c-0.5,0-1,0.2-1.4,0.6c-0.5,0.5-0.6,1.2-0.6,1.8c0,0.6,0.1,1.2,0.3,1.5
				c0.3,0.6,0.9,0.9,1.6,1c0.7,0,1.4-0.3,1.7-0.8c0.1-0.2,0.2-0.5,0.2-0.9H61.8z"/>
		</g>
		<g id="XMLID_326_">
			<path id="XMLID_14819_" class="st0" d="M64,49.7h-0.7v0.9H64V49.7z M64,51.5h-0.7V56H64V51.5z"/>
		</g>
		<g id="XMLID_327_">
			<path id="XMLID_14815_" class="st0" d="M68,54.7c0,0.1-0.5,0.9-1.5,0.9c-0.4,0-0.8-0.2-0.8-0.8c0-0.3,0.3-0.6,0.4-0.6
				c0.4-0.2,1.2-0.2,1.8-0.4V54.7z M68.7,52.3c0-0.4-0.5-0.7-1.1-0.9c-0.3-0.1-0.5-0.1-0.8-0.1c-0.4,0-0.7,0.1-0.9,0.2
				c-0.5,0.2-0.7,0.6-0.8,0.9l0,0.4h0.7c0-0.2,0.1-0.8,0.9-0.8c0.5,0,1.1,0.1,1.2,0.5V53c0,0.2-0.3,0.3-0.4,0.3
				c-0.4,0.1-0.9,0-1.7,0.3c-0.5,0.1-0.9,0.4-1,1.2c-0.1,0.9,0.6,1.4,1.6,1.4c0.6,0,1.1-0.4,1.4-0.7c0,0.3,0.3,0.7,0.7,0.7
				c0.2,0,0.4,0,0.6-0.1v-0.6c-0.1,0-0.1,0-0.2,0c-0.2,0-0.3-0.1-0.3-0.3V52.3z"/>
		</g>
		<g id="XMLID_328_">
			<path id="XMLID_14811_" class="st0" d="M4.7,41.8l0.9,2.8h-2L4.7,41.8z M3.4,45.2h2.4l0.6,1.9h0.9l-2.2-6.3h-1l-2.3,6.3h0.9
				L3.4,45.2z"/>
		</g>
		<g id="XMLID_329_">
			<path id="XMLID_14807_" class="st0" d="M10.6,46.3c-0.3,0.3-0.6,0.4-0.9,0.4c-0.3,0-0.7-0.2-0.9-0.5c-0.2-0.3-0.3-0.8-0.3-1.2
				s0.1-0.8,0.2-1c0.2-0.5,0.7-0.7,1-0.7c0.4,0,0.7,0.2,0.8,0.3C11.1,44,11.2,45.6,10.6,46.3z M11,42.6v0.6h0
				c-0.4-0.5-0.8-0.7-1.3-0.7c-0.8,0-1.4,0.6-1.5,0.7c-0.3,0.5-0.5,1.2-0.5,2c0,0.7,0.3,1.4,0.8,1.8c0.4,0.3,0.7,0.4,1,0.4
				c0.7,0,1.2-0.4,1.5-0.7c0,0.4,0,0.6-0.1,1c-0.1,0.3-0.1,0.5-0.5,0.7c-0.2,0.1-0.4,0.1-0.7,0.1c-0.2,0-0.4,0-0.6-0.1
				c-0.5-0.2-0.5-0.5-0.5-0.6H7.9c0,0.4,0.1,0.9,1,1.2C9.2,49,9.6,49,9.9,49c0.3,0,0.6-0.1,0.8-0.2c1-0.3,1.1-1.4,1.1-2.5v-3.8H11z"
				/>
		</g>
		<g id="XMLID_330_">
			<path id="XMLID_14803_" class="st0" d="M13.5,44.5c0-0.5,0.3-1,0.4-1.1c0.2-0.3,0.6-0.4,1-0.4c0.4,0,0.7,0.2,0.8,0.4
				c0.1,0.1,0.4,0.6,0.3,1.1H13.5z M16.7,45.1c0-0.8,0-1.4-0.5-2c-0.3-0.3-0.8-0.6-1.3-0.6c-0.6,0-1.2,0.1-1.7,0.7
				c-0.4,0.4-0.6,1.1-0.6,1.7c0,0.7,0.2,1.3,0.5,1.7c0.4,0.5,1,0.7,1.6,0.7c0.6,0,1.2-0.2,1.5-0.7c0.3-0.3,0.3-0.6,0.4-0.9h-0.7
				c-0.1,0.3-0.3,1-1.2,1c-0.5,0-0.8-0.3-1-0.6c-0.3-0.4-0.3-0.7-0.3-1H16.7z"/>
		</g>
		<g id="XMLID_331_">
			<path id="XMLID_14801_" class="st0" d="M17.7,42.6v4.5h0.7v-2.4c0-1.2,0.6-1.6,1.2-1.6c0.5,0,0.9,0.3,0.9,0.9v3.2h0.7v-3.5
				c-0.1-0.7-0.5-0.9-0.7-1c-0.1-0.1-0.4-0.1-0.7-0.1c-0.3,0-0.7,0-0.9,0.2c-0.2,0.1-0.4,0.3-0.5,0.5h0v-0.6H17.7z"/>
		</g>
		<g id="XMLID_332_">
			<path id="XMLID_14799_" class="st0" d="M25.3,45.5c0,0.2-0.1,0.4-0.2,0.6c-0.1,0.2-0.5,0.5-0.9,0.5c-0.4,0-0.8-0.2-1.1-0.7
				c-0.1-0.3-0.2-0.8-0.2-1.2c0-0.5,0.2-0.9,0.4-1.1c0.3-0.3,0.6-0.5,0.9-0.5c0.3,0,0.5,0.1,0.6,0.1c0.3,0.1,0.4,0.4,0.5,0.8H26
				c-0.1-0.5-0.2-1-0.6-1.3c-0.3-0.3-0.8-0.4-1.3-0.4c-0.5,0-1,0.2-1.4,0.6c-0.5,0.5-0.6,1.2-0.6,1.8c0,0.6,0.1,1.2,0.3,1.5
				c0.3,0.6,0.9,0.9,1.6,1c0.7,0,1.4-0.3,1.7-0.8c0.1-0.2,0.2-0.5,0.2-0.9H25.3z"/>
		</g>
		<g id="XMLID_333_">
			<path id="XMLID_14795_" class="st0" d="M27.5,40.8h-0.7v0.9h0.7V40.8z M27.5,42.6h-0.7v4.5h0.7V42.6z"/>
		</g>
		<g id="XMLID_334_">
			<path id="XMLID_14791_" class="st0" d="M31.5,45.8c0,0.1-0.5,0.9-1.5,0.9c-0.4,0-0.8-0.2-0.8-0.8c0-0.3,0.3-0.6,0.4-0.6
				c0.4-0.2,1.2-0.2,1.8-0.4V45.8z M32.3,43.4c0-0.4-0.5-0.7-1.1-0.9c-0.3-0.1-0.5-0.1-0.8-0.1c-0.4,0-0.7,0.1-0.9,0.2
				c-0.5,0.2-0.7,0.6-0.8,0.9l0,0.4h0.7c0-0.2,0.1-0.8,0.9-0.8c0.5,0,1.1,0.1,1.2,0.5v0.5c0,0.2-0.3,0.3-0.4,0.3
				c-0.4,0.1-0.9,0-1.7,0.3c-0.5,0.1-0.9,0.4-1,1.2c-0.1,0.9,0.6,1.4,1.6,1.4c0.6,0,1.1-0.4,1.4-0.7c0,0.3,0.3,0.7,0.7,0.7
				c0.2,0,0.4,0,0.6-0.1v-0.6c-0.1,0-0.1,0-0.2,0c-0.2,0-0.3-0.1-0.3-0.3V43.4z"/>
		</g>
		<g id="XMLID_335_">
			<path id="XMLID_14787_" class="st0" d="M36.8,46.2c-0.6-0.8-0.4-2.1-0.1-2.6c0.2-0.3,0.6-0.5,1-0.4c0.4,0,0.7,0.2,0.9,0.4
				c0.2,0.3,0.6,1.5,0,2.5c-0.2,0.3-0.5,0.5-0.9,0.5C37.4,46.6,37,46.5,36.8,46.2z M38.9,40.8v2.3h0c-0.1-0.1-0.2-0.3-0.4-0.4
				c-0.2-0.1-0.6-0.3-1-0.3c-0.4,0-0.9,0.1-1.3,0.6c-0.4,0.5-0.7,1.3-0.6,2.1c0.1,0.8,0.4,1.6,1.1,2c0.3,0.1,0.6,0.2,0.9,0.2
				c0.3,0,0.6-0.1,0.8-0.2c0.3-0.2,0.5-0.4,0.6-0.6v0.5h0.6v-6.3H38.9z"/>
		</g>
		<g id="XMLID_336_">
			<path id="XMLID_14783_" class="st0" d="M41.3,44.5c0-0.5,0.3-1,0.4-1.1c0.2-0.3,0.6-0.4,1-0.4c0.4,0,0.7,0.2,0.8,0.4
				c0.1,0.1,0.4,0.6,0.3,1.1H41.3z M44.6,45.1c0-0.8,0-1.4-0.5-2c-0.3-0.3-0.8-0.6-1.3-0.6s-1.2,0.1-1.7,0.7
				c-0.4,0.4-0.6,1.1-0.6,1.7c0,0.7,0.2,1.3,0.5,1.7c0.4,0.5,1,0.7,1.6,0.7c0.6,0,1.2-0.2,1.5-0.7c0.3-0.3,0.3-0.6,0.4-0.9h-0.7
				c-0.1,0.3-0.3,1-1.2,1c-0.5,0-0.8-0.3-1-0.6c-0.3-0.4-0.3-0.7-0.3-1H44.6z"/>
		</g>
		<g id="XMLID_337_">
			<path id="XMLID_14781_" class="st0" d="M53.1,42.7c-0.4-1.3-1.2-2.1-2.6-2c-0.8,0-1.5,0.4-1.7,0.6c-0.7,0.7-1,1.8-1,2.7
				c0,0.9,0.3,2,1,2.7c0.3,0.3,1,0.6,1.7,0.6c1.4,0,2.4-1.1,2.7-2.5h-0.8c-0.3,1.2-0.9,1.8-1.8,1.8c-0.5,0-1-0.2-1.4-0.6
				c-0.4-0.4-0.6-1.2-0.6-2c0-0.8,0.2-1.5,0.6-2c0.3-0.4,0.9-0.6,1.4-0.6c0.9,0,1.4,0.5,1.7,1.3H53.1z"/>
		</g>
		<g id="XMLID_338_">
			<path id="XMLID_14777_" class="st0" d="M54.9,40.8h-0.7v0.9h0.7V40.8z M54.9,42.6h-0.7v4.5h0.7V42.6z"/>
		</g>
		<g id="XMLID_339_">
			<path id="XMLID_14773_" class="st0" d="M56.7,44.5c0-0.5,0.3-1,0.4-1.1c0.2-0.3,0.6-0.4,1-0.4c0.4,0,0.7,0.2,0.8,0.4
				c0.1,0.1,0.4,0.6,0.3,1.1H56.7z M60,45.1c0-0.8,0-1.4-0.5-2c-0.3-0.3-0.8-0.6-1.3-0.6c-0.6,0-1.2,0.1-1.7,0.7
				c-0.4,0.4-0.6,1.1-0.6,1.7c0,0.7,0.2,1.3,0.5,1.7c0.4,0.5,1,0.7,1.6,0.7c0.6,0,1.2-0.2,1.5-0.7c0.3-0.3,0.3-0.6,0.4-0.9h-0.7
				c-0.1,0.3-0.3,1-1.2,1c-0.5,0-0.8-0.3-1-0.6c-0.3-0.4-0.3-0.7-0.3-1H60z"/>
		</g>
		<g id="XMLID_340_">
			<path id="XMLID_14771_" class="st0" d="M60.9,42.6v4.5h0.7v-2.4c0-1.2,0.6-1.6,1.2-1.6c0.5,0,0.9,0.3,0.9,0.9v3.2h0.7v-3.5
				c-0.1-0.7-0.5-0.9-0.7-1c-0.1-0.1-0.4-0.1-0.7-0.1c-0.3,0-0.7,0-0.9,0.2c-0.2,0.1-0.4,0.3-0.5,0.5h0v-0.6H60.9z"/>
		</g>
		<g id="XMLID_341_">
			<path id="XMLID_14769_" class="st0" d="M68.6,45.5c0,0.2-0.1,0.4-0.2,0.6c-0.1,0.2-0.5,0.5-0.9,0.5c-0.4,0-0.8-0.2-1.1-0.7
				c-0.1-0.3-0.2-0.8-0.2-1.2c0-0.5,0.2-0.9,0.4-1.1c0.3-0.3,0.6-0.5,0.9-0.5c0.3,0,0.5,0.1,0.6,0.1c0.3,0.1,0.4,0.4,0.5,0.8h0.7
				c-0.1-0.5-0.2-1-0.6-1.3c-0.3-0.3-0.8-0.4-1.3-0.4c-0.5,0-1,0.2-1.4,0.6c-0.5,0.5-0.6,1.2-0.6,1.8c0,0.6,0.1,1.2,0.3,1.5
				c0.3,0.6,0.9,0.9,1.6,1c0.7,0,1.4-0.3,1.7-0.8c0.1-0.2,0.2-0.5,0.2-0.9H68.6z"/>
		</g>
		<g id="XMLID_342_">
			<path id="XMLID_14765_" class="st0" d="M70.7,40.8H70v0.9h0.7V40.8z M70.7,42.6H70v4.5h0.7V42.6z"/>
		</g>
		<g id="XMLID_343_">
			<path id="XMLID_14761_" class="st0" d="M74.7,45.8c0,0.1-0.5,0.9-1.5,0.9c-0.4,0-0.8-0.2-0.8-0.8c0-0.3,0.3-0.6,0.4-0.6
				c0.4-0.2,1.2-0.2,1.8-0.4V45.8z M75.5,43.4c0-0.4-0.5-0.7-1.1-0.9c-0.3-0.1-0.5-0.1-0.8-0.1c-0.4,0-0.7,0.1-0.9,0.2
				c-0.5,0.2-0.7,0.6-0.8,0.9l0,0.4h0.7c0-0.2,0.1-0.8,0.9-0.8c0.5,0,1.1,0.1,1.2,0.5v0.5c0,0.2-0.3,0.3-0.4,0.3
				c-0.4,0.1-0.9,0-1.7,0.3c-0.5,0.1-0.9,0.4-1,1.2c-0.1,0.9,0.6,1.4,1.6,1.4c0.6,0,1.1-0.4,1.4-0.7c0,0.3,0.3,0.7,0.7,0.7
				c0.2,0,0.4,0,0.6-0.1v-0.6c-0.1,0-0.1,0-0.2,0c-0.2,0-0.3-0.1-0.3-0.3V43.4z"/>
		</g>
		<g id="XMLID_344_">
			<path id="XMLID_14759_" class="st0" d="M81.9,42.6L80.7,46l-1.1-3.4h-0.8l1.5,4.6L80,47.9c-0.1,0.2-0.2,0.4-0.4,0.4
				c-0.2,0-0.4,0-0.5-0.1v0.7c0.1,0.1,0.2,0.1,0.4,0.1c0.2,0,0.4,0,0.6-0.1c0.3-0.1,0.5-0.4,0.6-0.7l2.1-5.6H81.9z"/>
		</g>
		<g id="XMLID_345_">
			<polygon id="XMLID_14757_" class="st0" points="87.4,47.1 88.2,47.1 88.2,41.5 90.3,41.5 90.3,40.8 85.3,40.8 85.3,41.5 
				87.4,41.5 			"/>
		</g>
		<g id="XMLID_346_">
			<path id="XMLID_14753_" class="st0" d="M90.6,44.5c0-0.5,0.3-1,0.4-1.1c0.2-0.3,0.6-0.4,1-0.4c0.4,0,0.7,0.2,0.8,0.4
				c0.1,0.1,0.4,0.6,0.3,1.1H90.6z M93.9,45.1c0-0.8,0-1.4-0.5-2c-0.3-0.3-0.8-0.6-1.3-0.6c-0.6,0-1.2,0.1-1.7,0.7
				c-0.4,0.4-0.6,1.1-0.6,1.7c0,0.7,0.2,1.3,0.5,1.7c0.4,0.5,1,0.7,1.6,0.7c0.6,0,1.2-0.2,1.5-0.7c0.3-0.3,0.3-0.6,0.4-0.9h-0.7
				c-0.1,0.3-0.3,1-1.2,1c-0.5,0-0.8-0.3-1-0.6c-0.3-0.4-0.3-0.7-0.3-1H93.9z"/>
		</g>
		<g id="XMLID_347_">
			<path id="XMLID_14751_" class="st0" d="M97.7,45.5c0,0.2-0.1,0.4-0.2,0.6c-0.1,0.2-0.5,0.5-0.9,0.5c-0.4,0-0.8-0.2-1.1-0.7
				c-0.1-0.3-0.2-0.8-0.2-1.2c0-0.5,0.2-0.9,0.4-1.1c0.3-0.3,0.6-0.5,0.9-0.5c0.3,0,0.5,0.1,0.6,0.1c0.3,0.1,0.4,0.4,0.5,0.8h0.7
				c-0.1-0.5-0.2-1-0.6-1.3c-0.3-0.3-0.8-0.4-1.3-0.4c-0.5,0-1,0.2-1.4,0.6c-0.5,0.5-0.6,1.2-0.6,1.8c0,0.6,0.1,1.2,0.3,1.5
				c0.3,0.6,0.9,0.9,1.6,1c0.7,0,1.4-0.3,1.7-0.8c0.1-0.2,0.2-0.5,0.2-0.9H97.7z"/>
		</g>
		<g id="XMLID_348_">
			<path id="XMLID_14749_" class="st0" d="M99.2,42.6v4.5h0.7v-2.4c0-1.2,0.6-1.6,1.2-1.6c0.5,0,0.9,0.3,0.9,0.9v3.2h0.7v-3.5
				c-0.1-0.7-0.5-0.9-0.7-1c-0.1-0.1-0.4-0.1-0.7-0.1c-0.3,0-0.7,0-0.9,0.2c-0.2,0.1-0.4,0.3-0.5,0.5h0v-0.6H99.2z"/>
		</g>
		<g id="XMLID_349_">
			<path id="XMLID_14745_" class="st0" d="M107.1,44.9c0,0.7-0.3,1.7-1.3,1.7c-1,0-1.3-1-1.3-1.7c0-0.7,0.4-1.7,1.3-1.7
				C106.7,43.2,107.1,44.1,107.1,44.9z M107.8,44.9c0-2-1.2-2.4-2-2.4s-2,0.4-2,2.4c0,2,1.2,2.4,2,2.4S107.8,46.9,107.8,44.9z"/>
		</g>
		<g id="XMLID_350_">
			<rect id="XMLID_14743_" x="108.8" y="40.8" class="st0" width="0.7" height="6.3"/>
		</g>
		<g id="XMLID_351_">
			<path id="XMLID_14739_" class="st0" d="M113.8,44.9c0,0.7-0.3,1.7-1.3,1.7c-1,0-1.3-1-1.3-1.7c0-0.7,0.4-1.7,1.3-1.7
				C113.4,43.2,113.8,44.1,113.8,44.9z M114.5,44.9c0-2-1.2-2.4-2-2.4s-2,0.4-2,2.4c0,2,1.2,2.4,2,2.4S114.5,46.9,114.5,44.9z"/>
		</g>
		<g id="XMLID_352_">
			<path id="XMLID_14735_" class="st0" d="M118,46.3c-0.3,0.3-0.6,0.4-0.9,0.4c-0.3,0-0.7-0.2-0.9-0.5c-0.2-0.3-0.3-0.8-0.3-1.2
				c0-0.4,0.1-0.8,0.2-1c0.2-0.5,0.7-0.7,1-0.7c0.4,0,0.7,0.2,0.8,0.3C118.5,44,118.6,45.6,118,46.3z M118.4,42.6v0.6h0
				c-0.4-0.5-0.8-0.7-1.3-0.7c-0.8,0-1.4,0.6-1.5,0.7c-0.3,0.5-0.5,1.2-0.5,2c0,0.7,0.3,1.4,0.8,1.8c0.4,0.3,0.7,0.4,1,0.4
				c0.7,0,1.2-0.4,1.5-0.7c0,0.4,0,0.6-0.1,1c-0.1,0.3-0.1,0.5-0.5,0.7c-0.2,0.1-0.4,0.1-0.7,0.1c-0.2,0-0.4,0-0.6-0.1
				c-0.5-0.2-0.5-0.5-0.5-0.6h-0.7c0,0.4,0.1,0.9,1,1.2c0.3,0.1,0.7,0.2,1,0.1c0.3,0,0.6-0.1,0.8-0.2c1-0.3,1.1-1.4,1.1-2.5v-3.8
				H118.4z"/>
		</g>
		<g id="XMLID_353_">
			<path id="XMLID_14731_" class="st0" d="M120.5,47.1h0.7v-4.5h-0.7V47.1z M121.1,40.7l-0.8,1.3h0.5l1.3-1.3H121.1z"/>
		</g>
		<g id="XMLID_354_">
			<path id="XMLID_14727_" class="st0" d="M125.5,45.8c0,0.1-0.5,0.9-1.5,0.9c-0.4,0-0.8-0.2-0.8-0.8c0-0.3,0.3-0.6,0.4-0.6
				c0.4-0.2,1.2-0.2,1.8-0.4V45.8z M126.2,43.4c0-0.4-0.5-0.7-1.1-0.9c-0.3-0.1-0.5-0.1-0.8-0.1c-0.4,0-0.7,0.1-0.9,0.2
				c-0.5,0.2-0.7,0.6-0.8,0.9l0,0.4h0.7c0-0.2,0.1-0.8,0.9-0.8c0.5,0,1.1,0.1,1.2,0.5v0.5c0,0.2-0.3,0.3-0.4,0.3
				c-0.4,0.1-0.9,0-1.7,0.3c-0.5,0.1-0.9,0.4-1,1.2c-0.1,0.9,0.6,1.4,1.6,1.4c0.6,0,1.1-0.4,1.4-0.7c0,0.3,0.3,0.7,0.7,0.7
				c0.2,0,0.4,0,0.6-0.1v-0.6c-0.1,0-0.1,0-0.2,0c-0.2,0-0.3-0.1-0.3-0.3V43.4z"/>
		</g>
	</g>
	<g id="XMLID_355_">
		<path id="XMLID_14724_" class="st1" d="M25.5,21.5c0,2.8,1.4,7.5,9.6,7.5c2,0,8.8-0.6,8.8-7.3c0-4-2.8-5.3-5.9-6l-5.5-1.3
			c-0.9-0.2-2.4-0.6-2.4-2.3c0-2,2.1-2.7,3.9-2.7c4.1,0,4.5,2.4,4.6,3.4h4.5c0-2.7-1.9-7.2-8.7-7.2c-7.3,0-8.6,4.4-8.6,6.9
			c0,4.9,3.5,5.7,7.1,6.6l2.4,0.6c2.4,0.6,4.1,1,4.1,2.8c0,2.4-2.5,2.9-4.7,2.9c-4.1,0-4.7-2.4-4.7-3.6H25.5z"/>
	</g>
	<g id="XMLID_356_">
		<path id="XMLID_14719_" class="st1" d="M50.4,18.4c0.2-2.2,1.3-3.5,3.4-3.5c1.4,0,3.1,0.8,3.4,3.5H50.4z M57,23.5
			c-0.3,1.2-1.6,1.8-2.8,1.8c-3.5,0-3.8-2.8-3.9-4.1h11.4v-0.8c0-7.6-4.5-9.1-7.8-9.1c-7.3,0-8,6.4-8,8.4c0,6.8,3.6,9.1,8.3,9.1
			c2.8,0,6.2-1.3,7.3-5.3H57z M59.8,5H55L52,9.5h3.2L59.8,5z"/>
	</g>
	<g id="XMLID_357_">
		<polygon id="XMLID_14717_" class="st1" points="78.6,21.6 78.5,21.6 69.6,6 64.7,6 64.7,28.4 69,28.4 69,12.4 69.1,12.4 
			78.3,28.4 82.9,28.4 82.9,6 78.6,6 		"/>
	</g>
	<g id="XMLID_358_">
		<path id="XMLID_14713_" class="st1" d="M90.3,18.4c0.2-2.2,1.3-3.5,3.4-3.5c1.4,0,3.1,0.8,3.4,3.5H90.3z M96.9,23.5
			c-0.3,1.2-1.6,1.8-2.8,1.8c-3.5,0-3.8-2.8-3.9-4.1h11.4v-0.8c0-7.6-4.5-9.1-7.8-9.1c-7.3,0-8,6.4-8,8.4c0,6.8,3.6,9.1,8.3,9.1
			c2.8,0,6.2-1.3,7.3-5.3H96.9z"/>
	</g>
	<g id="XMLID_359_">
		<path id="XMLID_14711_" class="st1" d="M123.8,13.3c-0.3-3.3-3-7.9-9.7-7.9c-5.8,0-10.3,4-10.3,11.8c0,7.7,4.3,11.8,10.2,11.8
			c5.6,0,8.8-3.4,9.7-8.3h-4.7c-0.6,2.7-2.4,4.2-5,4.2c-4,0-5.6-3.6-5.6-7.6c0-6.3,3.3-7.8,5.6-7.8c3.9,0,4.6,2.5,5,3.9H123.8z"/>
	</g>
	<g id="XMLID_360_">
		<path id="XMLID_14707_" class="st1" d="M136.2,22.4c0,2-2,3.3-3.9,3.3c-0.8,0-2-0.5-2-2c0-1.8,1.3-2.2,3-2.5
			c1.8-0.3,2.5-0.6,3-0.9V22.4z M140.4,16.1c0-4.1-4.3-4.8-6.6-4.8c-3.4,0-6.9,0.7-7.4,5.8h4.2c0.1-1,0.5-2.3,2.7-2.3
			c1.1,0,2.9,0.1,2.9,1.9c0,0.9-0.8,1.2-1.5,1.3l-3.9,0.6c-2.8,0.4-4.8,2.1-4.8,5.3c0,3.4,2.6,4.8,5.1,4.8c3,0,4.4-1.4,5.4-2.4
			c0.1,0.9,0.2,1.2,0.4,2h4.7v-0.7c-0.5-0.2-1-0.6-1-2.6V16.1z"/>
	</g>
	<g id="XMLID_361_">
		<path id="XMLID_14705_" class="st1" d="M7.9,14.8h2.8v-3.1H7.9V11c0-1.4,0-1.8,1.5-1.8h1.2V5.6c-0.4,0-1-0.1-2.2-0.1
			c-3,0-4.9,1.3-4.9,4.7v1.3H1.1v3.1h2.4v13.5h4.4V14.8z"/>
	</g>
	<g id="XMLID_362_">
		<g id="XMLID_363_">
			<path id="XMLID_14703_" class="st0" d="M151,19.4c-1.4-2.4-2.5-4.9-2.5-8.8c0-3.9,1.1-6.4,2.5-8.9h-1.9c-1.7,2.3-3.3,5.2-3.3,8.9
				c0,3.7,1.6,6.5,3.3,8.8H151z"/>
		</g>
		<g id="XMLID_364_">
			<path id="XMLID_14699_" class="st2" d="M151.4,1.5l-0.2,0.3c-1.5,2.6-2.5,5-2.5,8.8c0,4,1.3,6.6,2.5,8.7l0.2,0.3H149l-0.1-0.1
				c-1.4-1.9-3.3-5-3.3-8.9c0-3.1,1.1-6,3.3-9l0.1-0.1H151.4z M149.2,19.2h1.5c-1.2-2.1-2.4-4.7-2.4-8.6c0-3.7,0.9-6.2,2.4-8.7h-1.5
				c-2.2,2.9-3.2,5.7-3.2,8.7C146,14.4,147.8,17.3,149.2,19.2z"/>
		</g>
		<g id="XMLID_365_">
			<path id="XMLID_14697_" class="st0" d="M162.7,1.7c1.4,2.4,2.5,4.9,2.5,8.8s-1.1,6.4-2.5,8.9h1.9c1.7-2.3,3.3-5.2,3.3-8.9
				c0-3.7-1.6-6.5-3.3-8.8H162.7z"/>
		</g>
		<g id="XMLID_366_">
			<path id="XMLID_14693_" class="st2" d="M168.1,10.5c0,3.1-1.1,6-3.3,9l-0.1,0.1h-2.4l0.2-0.3c1.5-2.6,2.5-5,2.5-8.8
				c0-4-1.3-6.6-2.5-8.7l-0.2-0.3h2.4l0.1,0.1C166.2,3.5,168.1,6.6,168.1,10.5z M164.6,19.2c2.2-2.9,3.2-5.7,3.2-8.7
				c0-3.8-1.8-6.7-3.2-8.6h-1.5c1.2,2.1,2.4,4.7,2.4,8.6c0,3.7-0.9,6.2-2.4,8.7H164.6z"/>
		</g>
		<g id="XMLID_367_">
			<polygon id="XMLID_14691_" class="st3" points="155.5,5.8 158.2,5.8 158.2,9.2 161.7,9.2 161.7,11.9 158.2,11.9 158.2,15.3 
				155.5,15.3 155.5,11.9 152.1,11.9 152.1,9.2 155.5,9.2 			"/>
		</g>
	</g>
</g>
</svg>
